<svg viewBox="0 0 600 400" xmlns="http://www.w3.org/2000/svg">
<g transform="translate(72, 364)">
<g>
<g>
<rect fill="red" height="10" width="10" x="219.26961831291786" y="-84.52857013912119"/>
</g>
</g>
<g>
<g>
<rect fill="blue" height="10" width="10" x="326.0826190017577" y="-11.306819502694568"/>
<rect fill="blue" height="10" width="10" x="405.47112532891566" y="-5"/>
<rect fill="blue" height="10" width="10" x="475" y="-208.9800397479605"/>
</g>
</g>
<g>
<g>
<rect fill="black" height="10" width="10" x="-5" y="-316.4036888522014"/>
<rect fill="black" height="10" width="10" x="237.56652157268263" y="-345"/>
</g>
</g>
<g>
<g>
<line stroke="black" stroke-width="1" x1="-0.00013206973558867763" x2="-0.00013206973558867763" y1="0" y2="10"/>
<line stroke="black" stroke-width="1" x1="153.27062062509992" x2="153.27062062509992" y1="0" y2="10"/>
<line stroke="black" stroke-width="1" x1="306.54137331993553" x2="306.54137331993553" y1="0" y2="10"/>
<line stroke="black" stroke-width="1" x1="459.812126014771" x2="459.812126014771" y1="0" y2="10"/>
</g>
<line stroke="black" stroke-width="1" x1="0" x2="480" y1="0" y2="0"/>
<g>
<text font-size="12" text-anchor="middle" x="-0.00013206973558867763" y="20">
2.68387
</text>
<text font-size="12" text-anchor="middle" x="153.27062062509992" y="20">
7.68387
</text>
<text font-size="12" text-anchor="middle" x="306.54137331993553" y="20">
12.68387
</text>
<text font-size="12" text-anchor="middle" x="459.812126014771" y="20">
17.68387
</text>
</g>
<text font-size="12" text-anchor="middle" x="240" y="30">

</text>
</g>
<g>
<g>
<line stroke="black" stroke-width="1" x1="0" x2="-10" y1="0.000040948448893887314" y2="0.000040948448893887314"/>
<line stroke="black" stroke-width="1" x1="0" x2="-10" y1="-56.71152304130397" y2="-56.71152304130397"/>
<line stroke="black" stroke-width="1" x1="0" x2="-10" y1="-113.42308703105684" y2="-113.42308703105684"/>
<line stroke="black" stroke-width="1" x1="0" x2="-10" y1="-170.13465102080968" y2="-170.13465102080968"/>
<line stroke="black" stroke-width="1" x1="0" x2="-10" y1="-226.8462150105626" y2="-226.8462150105626"/>
<line stroke="black" stroke-width="1" x1="0" x2="-10" y1="-283.55777900031546" y2="-283.55777900031546"/>
</g>
<line stroke="black" stroke-width="1" x1="0" x2="0" y1="0" y2="-340"/>
<g>
<text dominant-baseline="middle" font-size="12" text-anchor="end" x="-15" y="0.000040948448893887314">
2.39066
</text>
<text dominant-baseline="middle" font-size="12" text-anchor="end" x="-15" y="-56.71152304130397">
6.39066
</text>
<text dominant-baseline="middle" font-size="12" text-anchor="end" x="-15" y="-113.42308703105684">
10.39066
</text>
<text dominant-baseline="middle" font-size="12" text-anchor="end" x="-15" y="-170.13465102080968">
14.39066
</text>
<text dominant-baseline="middle" font-size="12" text-anchor="end" x="-15" y="-226.8462150105626">
18.39066
</text>
<text dominant-baseline="middle" font-size="12" text-anchor="end" x="-15" y="-283.55777900031546">
22.39066
</text>
</g>
<text font-size="12" text-anchor="middle" transform="rotate(-90 -96 -170)" x="-96" y="-182">

</text>
</g>
</g>
</svg>