<svg viewBox="0 0 600 400" xmlns="http://www.w3.org/2000/svg">
<g transform="translate(72, 364)">
<g>
<g>
<rect fill="red" height="10" width="10" x="268.3797917380626" y="-215.15456459912792"/>
</g>
</g>
<g>
<g>
<rect fill="blue" height="10" width="10" x="306.4027157119831" y="-172.01969429567814"/>
<rect fill="blue" height="10" width="10" x="346.84200903153567" y="-201.16551702350242"/>
<rect fill="blue" height="10" width="10" x="180.68097840451958" y="-246.88384714855707"/>
</g>
</g>
<g>
<g>
<rect fill="black" height="10" width="10" x="37.563196431203075" y="-153.96412926646616"/>
<rect fill="black" height="10" width="10" x="-5" y="-59.13609467880475"/>
<rect fill="black" height="10" width="10" x="0.005086951401247042" y="-88.94364821852578"/>
<rect fill="black" height="10" width="10" x="32.17728409035197" y="-200.61195971139134"/>
<rect fill="black" height="10" width="10" x="39.78236431335504" y="-170.7363977839542"/>
<rect fill="black" height="10" width="10" x="57.50612189296618" y="-257.60929627765483"/>
<rect fill="black" height="10" width="10" x="60.08112174569118" y="-5"/>
<rect fill="black" height="10" width="10" x="82.09937732131563" y="-46.47235220078822"/>
<rect fill="black" height="10" width="10" x="91.11173074800557" y="-345"/>
<rect fill="black" height="10" width="10" x="135.20809640519016" y="-171.66446209695775"/>
<rect fill="black" height="10" width="10" x="203.9961926127154" y="-132.7751730208774"/>
<rect fill="black" height="10" width="10" x="272.09190451497426" y="-318.4473570652615"/>
<rect fill="black" height="10" width="10" x="326.2931655102699" y="-323.49075678279894"/>
<rect fill="black" height="10" width="10" x="388.72595467912623" y="-33.849004595939974"/>
<rect fill="black" height="10" width="10" x="475" y="-263.34154130925054"/>
<rect fill="black" height="10" width="10" x="368.69762627272985" y="-237.3910806741478"/>
<rect fill="black" height="10" width="10" x="415.4110622850546" y="-183.15590511153823"/>
</g>
</g>
<g>
<g>
<line stroke="black" stroke-width="1" x1="89.59648744508651" x2="89.59648744508651" y1="0" y2="10"/>
<line stroke="black" stroke-width="1" x1="212.11869030707055" x2="212.11869030707055" y1="0" y2="10"/>
<line stroke="black" stroke-width="1" x1="334.6408931690546" x2="334.6408931690546" y1="0" y2="10"/>
<line stroke="black" stroke-width="1" x1="457.16309603103866" x2="457.16309603103866" y1="0" y2="10"/>
</g>
<line stroke="black" stroke-width="1" x1="0" x2="480" y1="0" y2="0"/>
<g>
<text font-size="12" text-anchor="middle" x="89.59648744508651" y="20">
-20
</text>
<text font-size="12" text-anchor="middle" x="212.11869030707055" y="20">
0
</text>
<text font-size="12" text-anchor="middle" x="334.6408931690546" y="20">
20
</text>
<text font-size="12" text-anchor="middle" x="457.16309603103866" y="20">
40
</text>
</g>
<text font-size="12" text-anchor="middle" x="240" y="30">

</text>
</g>
<g>
<g>
<line stroke="black" stroke-width="1" x1="0" x2="-10" y1="-29.463084212468704" y2="-29.463084212468704"/>
<line stroke="black" stroke-width="1" x1="0" x2="-10" y1="-104.75120104024337" y2="-104.75120104024337"/>
<line stroke="black" stroke-width="1" x1="0" x2="-10" y1="-180.03931786801803" y2="-180.03931786801803"/>
<line stroke="black" stroke-width="1" x1="0" x2="-10" y1="-255.3274346957927" y2="-255.3274346957927"/>
<line stroke="black" stroke-width="1" x1="0" x2="-10" y1="-330.6155515235674" y2="-330.6155515235674"/>
</g>
<line stroke="black" stroke-width="1" x1="0" x2="0" y1="0" y2="-340"/>
<g>
<text dominant-baseline="middle" font-size="12" text-anchor="end" x="-15" y="-29.463084212468704">
-40
</text>
<text dominant-baseline="middle" font-size="12" text-anchor="end" x="-15" y="-104.75120104024337">
-20
</text>
<text dominant-baseline="middle" font-size="12" text-anchor="end" x="-15" y="-180.03931786801803">
0
</text>
<text dominant-baseline="middle" font-size="12" text-anchor="end" x="-15" y="-255.3274346957927">
20
</text>
<text dominant-baseline="middle" font-size="12" text-anchor="end" x="-15" y="-330.6155515235674">
40
</text>
</g>
<text font-size="12" text-anchor="middle" transform="rotate(-90 -36 -170)" x="-36" y="-182">

</text>
</g>
</g>
</svg>