<svg viewBox="0 0 600 400" xmlns="http://www.w3.org/2000/svg">
<g transform="translate(72, 364)">
<g>
<g>
<rect fill="red" height="10" width="10" x="173.7389262423901" y="-5"/>
</g>
</g>
<g>
<g>
<rect fill="blue" height="10" width="10" x="44.25793020867542" y="-80.59617238801513"/>
<rect fill="blue" height="10" width="10" x="-0.4736064431294542" y="-28.046698853737237"/>
<rect fill="blue" height="10" width="10" x="-5" y="-69.39335871951447"/>
</g>
</g>
<g>
<g>
<rect fill="black" height="10" width="10" x="163.21919913199588" y="-345"/>
<rect fill="black" height="10" width="10" x="475.00000000000006" y="-99.19719031054349"/>
</g>
</g>
<g>
<g>
<line stroke="black" stroke-width="1" x1="0.00002486579028180351" x2="0.00002486579028180351" y1="0" y2="10"/>
<line stroke="black" stroke-width="1" x1="93.38834868116088" x2="93.38834868116088" y1="0" y2="10"/>
<line stroke="black" stroke-width="1" x1="186.7766724965314" x2="186.7766724965314" y1="0" y2="10"/>
<line stroke="black" stroke-width="1" x1="280.164996311902" x2="280.164996311902" y1="0" y2="10"/>
<line stroke="black" stroke-width="1" x1="373.5533201272726" x2="373.5533201272726" y1="0" y2="10"/>
<line stroke="black" stroke-width="1" x1="466.9416439426432" x2="466.9416439426432" y1="0" y2="10"/>
</g>
<line stroke="black" stroke-width="1" x1="0" x2="480" y1="0" y2="0"/>
<g>
<text font-size="12" text-anchor="middle" x="0.00002486579028180351" y="20">
0.43034
</text>
<text font-size="12" text-anchor="middle" x="93.38834868116088" y="20">
5.43034
</text>
<text font-size="12" text-anchor="middle" x="186.7766724965314" y="20">
10.43034
</text>
<text font-size="12" text-anchor="middle" x="280.164996311902" y="20">
15.43034
</text>
<text font-size="12" text-anchor="middle" x="373.5533201272726" y="20">
20.43034
</text>
<text font-size="12" text-anchor="middle" x="466.9416439426432" y="20">
25.43034
</text>
</g>
<text font-size="12" text-anchor="middle" x="240" y="30">

</text>
</g>
<g>
<g>
<line stroke="black" stroke-width="1" x1="0" x2="-10" y1="-0" y2="-0"/>
<line stroke="black" stroke-width="1" x1="0" x2="-10" y1="-106.81895933375564" y2="-106.81895933375564"/>
<line stroke="black" stroke-width="1" x1="0" x2="-10" y1="-213.6379186675113" y2="-213.6379186675113"/>
<line stroke="black" stroke-width="1" x1="0" x2="-10" y1="-320.4568780012669" y2="-320.4568780012669"/>
</g>
<line stroke="black" stroke-width="1" x1="0" x2="0" y1="0" y2="-340"/>
<g>
<text dominant-baseline="middle" font-size="12" text-anchor="end" x="-15" y="-0">
8
</text>
<text dominant-baseline="middle" font-size="12" text-anchor="end" x="-15" y="-106.81895933375564">
13
</text>
<text dominant-baseline="middle" font-size="12" text-anchor="end" x="-15" y="-213.6379186675113">
18
</text>
<text dominant-baseline="middle" font-size="12" text-anchor="end" x="-15" y="-320.4568780012669">
23
</text>
</g>
<text font-size="12" text-anchor="middle" transform="rotate(-90 -24 -170)" x="-24" y="-182">

</text>
</g>
</g>
</svg>