<svg viewBox="0 0 600 400" xmlns="http://www.w3.org/2000/svg">
<g transform="translate(72, 364)">
<g>
<g>
<rect fill="red" height="10" width="10" x="226.49658006583664" y="-101.67210106973435"/>
</g>
</g>
<g>
<g>
<rect fill="blue" height="10" width="10" x="159.63496125670076" y="-127.28991230415437"/>
<rect fill="blue" height="10" width="10" x="274.98379517632065" y="-30.74921432508194"/>
<rect fill="blue" height="10" width="10" x="474.99999999999994" y="-61.34057114325822"/>
</g>
</g>
<g>
<g>
<rect fill="black" height="10" width="10" x="-5" y="-5"/>
<rect fill="black" height="10" width="10" x="180.82796589537227" y="-345"/>
</g>
</g>
<g>
<g>
<line stroke="black" stroke-width="1" x1="-0.00008354622799215513" x2="-0.00008354622799215513" y1="0" y2="10"/>
<line stroke="black" stroke-width="1" x1="94.2279734603557" x2="94.2279734603557" y1="0" y2="10"/>
<line stroke="black" stroke-width="1" x1="188.45603046693938" x2="188.45603046693938" y1="0" y2="10"/>
<line stroke="black" stroke-width="1" x1="282.68408747352305" x2="282.68408747352305" y1="0" y2="10"/>
<line stroke="black" stroke-width="1" x1="376.9121444801068" x2="376.9121444801068" y1="0" y2="10"/>
<line stroke="black" stroke-width="1" x1="471.1402014866905" x2="471.1402014866905" y1="0" y2="10"/>
</g>
<line stroke="black" stroke-width="1" x1="0" x2="480" y1="0" y2="0"/>
<g>
<text font-size="12" text-anchor="middle" x="-0.00008354622799215513" y="20">
0.17292
</text>
<text font-size="12" text-anchor="middle" x="94.2279734603557" y="20">
4.17292
</text>
<text font-size="12" text-anchor="middle" x="188.45603046693938" y="20">
8.17292
</text>
<text font-size="12" text-anchor="middle" x="282.68408747352305" y="20">
12.17292
</text>
<text font-size="12" text-anchor="middle" x="376.9121444801068" y="20">
16.17292
</text>
<text font-size="12" text-anchor="middle" x="471.1402014866905" y="20">
20.17292
</text>
</g>
<text font-size="12" text-anchor="middle" x="240" y="30">

</text>
</g>
<g>
<g>
<line stroke="black" stroke-width="1" x1="0" x2="-10" y1="-0.00005351559596891222" y2="-0.00005351559596891222"/>
<line stroke="black" stroke-width="1" x1="0" x2="-10" y1="-63.23581354148525" y2="-63.23581354148525"/>
<line stroke="black" stroke-width="1" x1="0" x2="-10" y1="-126.47157356737453" y2="-126.47157356737453"/>
<line stroke="black" stroke-width="1" x1="0" x2="-10" y1="-189.7073335932638" y2="-189.7073335932638"/>
<line stroke="black" stroke-width="1" x1="0" x2="-10" y1="-252.94309361915307" y2="-252.94309361915307"/>
<line stroke="black" stroke-width="1" x1="0" x2="-10" y1="-316.17885364504235" y2="-316.17885364504235"/>
</g>
<line stroke="black" stroke-width="1" x1="0" x2="0" y1="0" y2="-340"/>
<g>
<text dominant-baseline="middle" font-size="12" text-anchor="end" x="-15" y="-0.00005351559596891222">
0.35622
</text>
<text dominant-baseline="middle" font-size="12" text-anchor="end" x="-15" y="-63.23581354148525">
5.35622
</text>
<text dominant-baseline="middle" font-size="12" text-anchor="end" x="-15" y="-126.47157356737453">
10.35622
</text>
<text dominant-baseline="middle" font-size="12" text-anchor="end" x="-15" y="-189.7073335932638">
15.35622
</text>
<text dominant-baseline="middle" font-size="12" text-anchor="end" x="-15" y="-252.94309361915307">
20.35622
</text>
<text dominant-baseline="middle" font-size="12" text-anchor="end" x="-15" y="-316.17885364504235">
25.35622
</text>
</g>
<text font-size="12" text-anchor="middle" transform="rotate(-90 -96 -170)" x="-96" y="-182">

</text>
</g>
</g>
</svg>